<mxfile host="app.diagrams.net" modified="2023-04-24T19:01:47.868Z" agent="Mozilla/5.0 (Windows NT 10.0; Win64; x64) AppleWebKit/537.36 (KHTML, like Gecko) Chrome/111.0.0.0 Safari/537.36 OPR/97.0.0.0" etag="vi5PYXhRCsseMx5Crr54" version="21.1.8" type="device">
  <diagram id="93s3n610Q2Iywd-KZ8NS" name="Page-1">
    <mxGraphModel dx="1674" dy="758" grid="1" gridSize="10" guides="1" tooltips="1" connect="1" arrows="1" fold="1" page="1" pageScale="1" pageWidth="827" pageHeight="1169" math="0" shadow="0">
      <root>
        <mxCell id="0" />
        <mxCell id="1" parent="0" />
        <mxCell id="VG8gu2_-0HpxI-RJPZhK-10" value="" style="rounded=1;whiteSpace=wrap;html=1;" vertex="1" parent="1">
          <mxGeometry x="681.45" y="200" width="266.55" height="347" as="geometry" />
        </mxCell>
        <mxCell id="e2jHNtIYD2yQGRrQmVJL-1" value="" style="image;aspect=fixed;html=1;points=[];align=center;fontSize=12;image=img/lib/azure2/iot/IoT_Hub.svg;" parent="1" vertex="1">
          <mxGeometry x="307" y="178" width="64" height="64" as="geometry" />
        </mxCell>
        <mxCell id="e2jHNtIYD2yQGRrQmVJL-4" value="" style="endArrow=classic;html=1;rounded=0;" parent="1" edge="1">
          <mxGeometry width="50" height="50" relative="1" as="geometry">
            <mxPoint x="101.4" y="80.67" as="sourcePoint" />
            <mxPoint x="160" y="80" as="targetPoint" />
          </mxGeometry>
        </mxCell>
        <mxCell id="e2jHNtIYD2yQGRrQmVJL-5" value="" style="endArrow=classic;html=1;rounded=0;" parent="1" edge="1">
          <mxGeometry width="50" height="50" relative="1" as="geometry">
            <mxPoint x="338.67" y="121" as="sourcePoint" />
            <mxPoint x="338.67" y="163" as="targetPoint" />
          </mxGeometry>
        </mxCell>
        <mxCell id="e2jHNtIYD2yQGRrQmVJL-6" value="" style="image;aspect=fixed;html=1;points=[];align=center;fontSize=12;image=img/lib/azure2/iot/Industrial_IoT.svg;" parent="1" vertex="1">
          <mxGeometry x="30" y="47" width="62.8" height="68" as="geometry" />
        </mxCell>
        <mxCell id="e2jHNtIYD2yQGRrQmVJL-7" value="" style="image;aspect=fixed;html=1;points=[];align=center;fontSize=12;image=img/lib/azure2/iot/IoT_Edge.svg;" parent="1" vertex="1">
          <mxGeometry x="305" y="47" width="68" height="68" as="geometry" />
        </mxCell>
        <mxCell id="e2jHNtIYD2yQGRrQmVJL-8" value="IoTfrom industry" style="text;html=1;strokeColor=none;fillColor=none;align=center;verticalAlign=middle;whiteSpace=wrap;rounded=0;" parent="1" vertex="1">
          <mxGeometry x="21.4" y="7" width="80" height="30" as="geometry" />
        </mxCell>
        <mxCell id="e2jHNtIYD2yQGRrQmVJL-10" value="IoT edge&lt;br&gt;(industry -&amp;gt; internet)" style="text;html=1;strokeColor=none;fillColor=none;align=center;verticalAlign=middle;whiteSpace=wrap;rounded=0;" parent="1" vertex="1">
          <mxGeometry x="279" y="7" width="120" height="30" as="geometry" />
        </mxCell>
        <mxCell id="e2jHNtIYD2yQGRrQmVJL-12" value="IoT Hub" style="text;html=1;strokeColor=none;fillColor=none;align=center;verticalAlign=middle;whiteSpace=wrap;rounded=0;" parent="1" vertex="1">
          <mxGeometry x="309" y="242" width="60" height="30" as="geometry" />
        </mxCell>
        <mxCell id="e2jHNtIYD2yQGRrQmVJL-13" value="" style="image;aspect=fixed;html=1;points=[];align=center;fontSize=12;image=img/lib/azure2/iot/Stream_Analytics_Jobs.svg;" parent="1" vertex="1">
          <mxGeometry x="303" y="330" width="68" height="57.99999999999999" as="geometry" />
        </mxCell>
        <mxCell id="e2jHNtIYD2yQGRrQmVJL-14" value="" style="image;aspect=fixed;html=1;points=[];align=center;fontSize=12;image=img/lib/azure2/databases/Azure_Synapse_Analytics.svg;" parent="1" vertex="1">
          <mxGeometry x="731.91" y="313" width="60" height="69" as="geometry" />
        </mxCell>
        <mxCell id="e2jHNtIYD2yQGRrQmVJL-17" value="" style="shape=image;verticalLabelPosition=bottom;labelBackgroundColor=default;verticalAlign=top;aspect=fixed;imageAspect=0;image=https://www.altisconsulting.com/au/wp-content/uploads/sites/4/2018/08/datalake.png;" parent="1" vertex="1">
          <mxGeometry x="558.91" y="388" width="119.28" height="62.63" as="geometry" />
        </mxCell>
        <mxCell id="e2jHNtIYD2yQGRrQmVJL-18" value="" style="image;aspect=fixed;html=1;points=[];align=center;fontSize=12;image=img/lib/azure2/ai_machine_learning/Machine_Learning.svg;" parent="1" vertex="1">
          <mxGeometry x="729.91" y="448" width="64" height="68" as="geometry" />
        </mxCell>
        <mxCell id="e2jHNtIYD2yQGRrQmVJL-21" value="" style="shape=image;verticalLabelPosition=bottom;labelBackgroundColor=default;verticalAlign=top;aspect=fixed;imageAspect=0;image=https://logos-marques.com/wp-content/uploads/2022/08/Microsoft-Power-BI-Logo-2013.png;" parent="1" vertex="1">
          <mxGeometry x="836.91" y="284" width="115.56" height="65" as="geometry" />
        </mxCell>
        <mxCell id="e2jHNtIYD2yQGRrQmVJL-22" value="" style="endArrow=classic;html=1;rounded=0;" parent="1" edge="1">
          <mxGeometry width="50" height="50" relative="1" as="geometry">
            <mxPoint x="340" y="272" as="sourcePoint" />
            <mxPoint x="340" y="310" as="targetPoint" />
          </mxGeometry>
        </mxCell>
        <mxCell id="e2jHNtIYD2yQGRrQmVJL-23" value="" style="endArrow=classic;html=1;rounded=0;" parent="1" edge="1">
          <mxGeometry width="50" height="50" relative="1" as="geometry">
            <mxPoint x="373" y="384.32" as="sourcePoint" />
            <mxPoint x="470" y="420" as="targetPoint" />
          </mxGeometry>
        </mxCell>
        <mxCell id="e2jHNtIYD2yQGRrQmVJL-25" value="" style="endArrow=classic;html=1;rounded=0;" parent="1" edge="1">
          <mxGeometry width="50" height="50" relative="1" as="geometry">
            <mxPoint x="792.9099999999999" y="340.24895262649056" as="sourcePoint" />
            <mxPoint x="856" y="325" as="targetPoint" />
          </mxGeometry>
        </mxCell>
        <mxCell id="e2jHNtIYD2yQGRrQmVJL-28" value="Stream Analytics" style="text;html=1;strokeColor=none;fillColor=none;align=center;verticalAlign=middle;whiteSpace=wrap;rounded=0;" parent="1" vertex="1">
          <mxGeometry x="313" y="393" width="60" height="30" as="geometry" />
        </mxCell>
        <mxCell id="e2jHNtIYD2yQGRrQmVJL-29" value="Synapse Analytics" style="text;html=1;align=center;verticalAlign=middle;resizable=0;points=[];autosize=1;strokeColor=none;fillColor=none;" parent="1" vertex="1">
          <mxGeometry x="701.91" y="283" width="120" height="30" as="geometry" />
        </mxCell>
        <mxCell id="e2jHNtIYD2yQGRrQmVJL-30" value="Power BI" style="text;html=1;align=center;verticalAlign=middle;resizable=0;points=[];autosize=1;strokeColor=none;fillColor=none;" parent="1" vertex="1">
          <mxGeometry x="858.91" y="345" width="70" height="30" as="geometry" />
        </mxCell>
        <mxCell id="e2jHNtIYD2yQGRrQmVJL-31" value="Machine Learning" style="text;html=1;align=center;verticalAlign=middle;resizable=0;points=[];autosize=1;strokeColor=none;fillColor=none;" parent="1" vertex="1">
          <mxGeometry x="701.91" y="517" width="120" height="30" as="geometry" />
        </mxCell>
        <mxCell id="e2jHNtIYD2yQGRrQmVJL-32" value="Data Lake" style="text;html=1;align=center;verticalAlign=middle;resizable=0;points=[];autosize=1;strokeColor=none;fillColor=none;" parent="1" vertex="1">
          <mxGeometry x="580.91" y="449" width="80" height="30" as="geometry" />
        </mxCell>
        <mxCell id="e2jHNtIYD2yQGRrQmVJL-35" value="" style="endArrow=classic;startArrow=classic;html=1;rounded=0;entryX=-0.047;entryY=0.25;entryDx=0;entryDy=0;entryPerimeter=0;exitX=0.764;exitY=0.83;exitDx=0;exitDy=0;exitPerimeter=0;" parent="1" edge="1" source="e2jHNtIYD2yQGRrQmVJL-17">
          <mxGeometry width="50" height="50" relative="1" as="geometry">
            <mxPoint x="687.91" y="433" as="sourcePoint" />
            <mxPoint x="726.9019999999999" y="467" as="targetPoint" />
          </mxGeometry>
        </mxCell>
        <mxCell id="e2jHNtIYD2yQGRrQmVJL-37" value="" style="endArrow=classic;startArrow=classic;html=1;rounded=0;" parent="1" edge="1">
          <mxGeometry width="50" height="50" relative="1" as="geometry">
            <mxPoint x="761.91" y="443" as="sourcePoint" />
            <mxPoint x="761.91" y="393" as="targetPoint" />
          </mxGeometry>
        </mxCell>
        <mxCell id="9Z-EqyrHBFi7QP0P9xqO-5" value="" style="image;aspect=fixed;html=1;points=[];align=center;fontSize=12;image=img/lib/azure2/databases/SQL_Database.svg;" parent="1" vertex="1">
          <mxGeometry x="512.66" y="288" width="47.25" height="63" as="geometry" />
        </mxCell>
        <mxCell id="9Z-EqyrHBFi7QP0P9xqO-6" value="" style="image;aspect=fixed;html=1;points=[];align=center;fontSize=12;image=img/lib/azure2/iot/Time_Series_Data_Sets.svg;" parent="1" vertex="1">
          <mxGeometry x="489.90999999999997" y="406" width="45.18" height="60" as="geometry" />
        </mxCell>
        <mxCell id="9Z-EqyrHBFi7QP0P9xqO-7" value="Time Series Data Sets" style="text;html=1;strokeColor=none;fillColor=none;align=center;verticalAlign=middle;whiteSpace=wrap;rounded=0;" parent="1" vertex="1">
          <mxGeometry x="477" y="471" width="71" height="30" as="geometry" />
        </mxCell>
        <mxCell id="9Z-EqyrHBFi7QP0P9xqO-8" value="" style="endArrow=classic;html=1;rounded=0;shape=link;" parent="1" edge="1">
          <mxGeometry width="50" height="50" relative="1" as="geometry">
            <mxPoint x="545.91" y="433" as="sourcePoint" />
            <mxPoint x="579.91" y="423" as="targetPoint" />
          </mxGeometry>
        </mxCell>
        <mxCell id="9Z-EqyrHBFi7QP0P9xqO-9" value="" style="endArrow=classic;html=1;rounded=0;" parent="1" edge="1">
          <mxGeometry relative="1" as="geometry">
            <mxPoint x="380" y="340" as="sourcePoint" />
            <mxPoint x="500" y="320" as="targetPoint" />
          </mxGeometry>
        </mxCell>
        <mxCell id="9Z-EqyrHBFi7QP0P9xqO-10" value="Błędy/ostrzeżenia" style="edgeLabel;resizable=0;html=1;align=center;verticalAlign=middle;" parent="9Z-EqyrHBFi7QP0P9xqO-9" connectable="0" vertex="1">
          <mxGeometry relative="1" as="geometry" />
        </mxCell>
        <mxCell id="9Z-EqyrHBFi7QP0P9xqO-11" value="" style="endArrow=classic;html=1;rounded=0;shape=link;exitX=1;exitY=0;exitDx=0;exitDy=0;" parent="1" source="9Z-EqyrHBFi7QP0P9xqO-12" edge="1">
          <mxGeometry width="50" height="50" relative="1" as="geometry">
            <mxPoint x="598.91" y="352" as="sourcePoint" />
            <mxPoint x="589.91" y="383" as="targetPoint" />
          </mxGeometry>
        </mxCell>
        <mxCell id="9Z-EqyrHBFi7QP0P9xqO-12" value="RDB z logami" style="text;html=1;strokeColor=none;fillColor=none;align=center;verticalAlign=middle;whiteSpace=wrap;rounded=0;" parent="1" vertex="1">
          <mxGeometry x="506.28999999999996" y="352" width="60" height="30" as="geometry" />
        </mxCell>
        <mxCell id="9Z-EqyrHBFi7QP0P9xqO-14" value="" style="endArrow=classic;html=1;rounded=0;" parent="1" edge="1">
          <mxGeometry relative="1" as="geometry">
            <mxPoint x="380" y="360" as="sourcePoint" />
            <mxPoint x="500" y="340" as="targetPoint" />
          </mxGeometry>
        </mxCell>
        <mxCell id="9Z-EqyrHBFi7QP0P9xqO-15" value="Wykryte anomalie" style="edgeLabel;resizable=0;html=1;align=center;verticalAlign=middle;" parent="9Z-EqyrHBFi7QP0P9xqO-14" connectable="0" vertex="1">
          <mxGeometry relative="1" as="geometry" />
        </mxCell>
        <mxCell id="9Z-EqyrHBFi7QP0P9xqO-17" value="" style="endArrow=none;html=1;curved=1;" parent="1" edge="1">
          <mxGeometry width="50" height="50" relative="1" as="geometry">
            <mxPoint x="168" y="86" as="sourcePoint" />
            <mxPoint x="208" y="86" as="targetPoint" />
            <Array as="points">
              <mxPoint x="178" y="106" />
              <mxPoint x="188" y="86" />
              <mxPoint x="198" y="56" />
            </Array>
          </mxGeometry>
        </mxCell>
        <mxCell id="9Z-EqyrHBFi7QP0P9xqO-19" value="Wartości napięcia z czujników w postaci szeregu czasowego" style="text;html=1;strokeColor=none;fillColor=none;align=center;verticalAlign=middle;whiteSpace=wrap;rounded=0;" parent="1" vertex="1">
          <mxGeometry x="135" y="7" width="120" height="50" as="geometry" />
        </mxCell>
        <mxCell id="9Z-EqyrHBFi7QP0P9xqO-20" value="" style="endArrow=classic;html=1;rounded=0;" parent="1" edge="1">
          <mxGeometry width="50" height="50" relative="1" as="geometry">
            <mxPoint x="220" y="80.67" as="sourcePoint" />
            <mxPoint x="290" y="80" as="targetPoint" />
          </mxGeometry>
        </mxCell>
        <mxCell id="VG8gu2_-0HpxI-RJPZhK-3" value="" style="endArrow=classic;startArrow=classic;html=1;rounded=0;" edge="1" parent="1">
          <mxGeometry width="50" height="50" relative="1" as="geometry">
            <mxPoint x="793.91" y="374" as="sourcePoint" />
            <mxPoint x="848" y="406" as="targetPoint" />
          </mxGeometry>
        </mxCell>
        <mxCell id="VG8gu2_-0HpxI-RJPZhK-4" value="" style="image;aspect=fixed;html=1;points=[];align=center;fontSize=12;image=img/lib/azure2/analytics/Azure_Databricks.svg;" vertex="1" parent="1">
          <mxGeometry x="848.0000000000001" y="393" width="62.8" height="68" as="geometry" />
        </mxCell>
        <mxCell id="VG8gu2_-0HpxI-RJPZhK-5" value="Databricks" style="text;html=1;strokeColor=none;fillColor=none;align=center;verticalAlign=middle;whiteSpace=wrap;rounded=0;" vertex="1" parent="1">
          <mxGeometry x="849.4000000000002" y="461" width="60" height="30" as="geometry" />
        </mxCell>
        <mxCell id="VG8gu2_-0HpxI-RJPZhK-6" value="" style="fontColor=#0066CC;verticalAlign=top;verticalLabelPosition=bottom;labelPosition=center;align=center;html=1;outlineConnect=0;fillColor=#CCCCCC;strokeColor=#6881B3;gradientColor=none;gradientDirection=north;strokeWidth=2;shape=mxgraph.networks.monitor;" vertex="1" parent="1">
          <mxGeometry x="120" y="375.5" width="80" height="65" as="geometry" />
        </mxCell>
        <mxCell id="VG8gu2_-0HpxI-RJPZhK-7" value="" style="endArrow=classic;html=1;rounded=0;" edge="1" parent="1">
          <mxGeometry relative="1" as="geometry">
            <mxPoint x="290" y="370" as="sourcePoint" />
            <mxPoint x="220" y="390" as="targetPoint" />
          </mxGeometry>
        </mxCell>
        <mxCell id="VG8gu2_-0HpxI-RJPZhK-8" value="" style="shape=message;html=1;outlineConnect=0;" vertex="1" parent="VG8gu2_-0HpxI-RJPZhK-7">
          <mxGeometry width="20" height="14" relative="1" as="geometry">
            <mxPoint x="-10" y="-7" as="offset" />
          </mxGeometry>
        </mxCell>
        <mxCell id="VG8gu2_-0HpxI-RJPZhK-9" value="Użytkownicy" style="text;html=1;strokeColor=none;fillColor=none;align=center;verticalAlign=middle;whiteSpace=wrap;rounded=0;" vertex="1" parent="1">
          <mxGeometry x="130" y="441" width="60" height="30" as="geometry" />
        </mxCell>
        <mxCell id="VG8gu2_-0HpxI-RJPZhK-11" value="&lt;font style=&quot;font-size: 18px;&quot;&gt;Analiza zaawansowana&lt;/font&gt;" style="text;html=1;strokeColor=none;fillColor=none;align=center;verticalAlign=middle;whiteSpace=wrap;rounded=0;" vertex="1" parent="1">
          <mxGeometry x="684.73" y="207" width="260" height="30" as="geometry" />
        </mxCell>
        <mxCell id="VG8gu2_-0HpxI-RJPZhK-12" value="" style="endArrow=classic;startArrow=classic;html=1;rounded=0;" edge="1" parent="1">
          <mxGeometry width="50" height="50" relative="1" as="geometry">
            <mxPoint x="795.8199999999999" y="470.5" as="sourcePoint" />
            <mxPoint x="836.91" y="440.5" as="targetPoint" />
          </mxGeometry>
        </mxCell>
        <mxCell id="VG8gu2_-0HpxI-RJPZhK-17" value="" style="endArrow=classic;html=1;rounded=0;exitX=0.75;exitY=0;exitDx=0;exitDy=0;" edge="1" parent="1" source="e2jHNtIYD2yQGRrQmVJL-17" target="e2jHNtIYD2yQGRrQmVJL-14">
          <mxGeometry relative="1" as="geometry">
            <mxPoint x="548" y="650" as="sourcePoint" />
            <mxPoint x="648" y="650" as="targetPoint" />
          </mxGeometry>
        </mxCell>
        <mxCell id="VG8gu2_-0HpxI-RJPZhK-18" value="Polybase" style="edgeLabel;resizable=0;html=1;align=center;verticalAlign=middle;" connectable="0" vertex="1" parent="VG8gu2_-0HpxI-RJPZhK-17">
          <mxGeometry relative="1" as="geometry" />
        </mxCell>
        <mxCell id="VG8gu2_-0HpxI-RJPZhK-20" value="(np. powiadomienia o anomaliach)" style="text;html=1;strokeColor=none;fillColor=none;align=center;verticalAlign=middle;whiteSpace=wrap;rounded=0;" vertex="1" parent="1">
          <mxGeometry x="103.75" y="466" width="112.5" height="30" as="geometry" />
        </mxCell>
        <mxCell id="VG8gu2_-0HpxI-RJPZhK-21" value="" style="curved=1;endArrow=classic;html=1;rounded=0;" edge="1" parent="1">
          <mxGeometry width="50" height="50" relative="1" as="geometry">
            <mxPoint x="960" y="320" as="sourcePoint" />
            <mxPoint x="220" y="430" as="targetPoint" />
            <Array as="points">
              <mxPoint x="1090" y="370" />
              <mxPoint x="920" y="660" />
              <mxPoint x="480" y="600" />
            </Array>
          </mxGeometry>
        </mxCell>
        <mxCell id="VG8gu2_-0HpxI-RJPZhK-22" value="Wykresy itp." style="text;html=1;strokeColor=none;fillColor=none;align=center;verticalAlign=middle;whiteSpace=wrap;rounded=0;" vertex="1" parent="1">
          <mxGeometry x="766.91" y="600" width="70" height="30" as="geometry" />
        </mxCell>
        <mxCell id="VG8gu2_-0HpxI-RJPZhK-23" value="" style="curved=1;endArrow=classic;html=1;rounded=0;" edge="1" parent="1">
          <mxGeometry width="50" height="50" relative="1" as="geometry">
            <mxPoint x="760" y="550" as="sourcePoint" />
            <mxPoint x="220" y="410" as="targetPoint" />
            <Array as="points">
              <mxPoint x="720" y="680" />
            </Array>
          </mxGeometry>
        </mxCell>
        <mxCell id="VG8gu2_-0HpxI-RJPZhK-24" value="Modele do predykcji" style="text;html=1;strokeColor=none;fillColor=none;align=center;verticalAlign=middle;whiteSpace=wrap;rounded=0;" vertex="1" parent="1">
          <mxGeometry x="637.91" y="560" width="90" height="30" as="geometry" />
        </mxCell>
      </root>
    </mxGraphModel>
  </diagram>
</mxfile>
